# Blender v2.80 (sub 44) OBJ File: 'platform_templates.blend'
# www.blender.org
mtllib platform_edges_short.mtl
o Cube.007_Cube.002
v 1.000000 -9.000000 -2.000000
v 1.000000 -10.000000 -2.000000
v 1.000000 -9.000000 2.000000
v 1.000000 -10.000000 2.000000
v -1.000000 -9.000000 -2.000000
v -1.000000 -10.000000 -2.000000
v -1.000000 -9.000000 2.000000
v -1.000000 -10.000000 2.000000
v 2.000000 -9.000000 -2.000000
v 2.000000 -9.400000 -2.000000
v 2.000000 -9.000000 2.000000
v 2.000000 -9.400000 2.000000
v -2.000000 -9.000000 -2.000000
v -2.000000 -9.400000 -2.000000
v -2.000000 -9.000000 2.000000
v -2.000000 -9.400000 2.000000
vt 0.375000 0.000000
vt 0.625000 0.000000
vt 0.625000 0.250000
vt 0.375000 0.250000
vt 0.375000 0.250000
vt 0.625000 0.250000
vt 0.625000 0.500000
vt 0.375000 0.500000
vt 0.375000 0.750000
vt 0.375000 1.000000
vt 0.375000 1.000000
vt 0.375000 0.750000
vt 0.625000 0.750000
vt 0.625000 1.000000
vt 0.375000 0.250000
vt 0.625000 0.250000
vt 0.625000 0.500000
vt 0.875000 0.500000
vt 0.875000 0.750000
vt 0.125000 0.500000
vt 0.375000 0.500000
vt 0.375000 0.750000
vt 0.125000 0.750000
vt 0.875000 0.750000
vt 0.625000 0.750000
vt 0.625000 1.000000
vt 0.375000 0.250000
vt 0.375000 0.000000
vt 0.375000 0.500000
vt 0.625000 0.500000
vt 0.625000 0.750000
vt 0.625000 0.000000
vt 0.625000 0.250000
vt 0.625000 0.500000
vt 0.875000 0.500000
vn 0.0000 1.0000 0.0000
vn 0.0000 0.0000 1.0000
vn -0.5145 -0.8575 0.0000
vn 0.0000 -1.0000 0.0000
vn 0.0000 0.0000 -1.0000
vn 1.0000 0.0000 0.0000
vn 0.5145 -0.8575 0.0000
vn -1.0000 0.0000 0.0000
usemtl Material
s off
f 1/1/1 5/2/1 7/3/1 3/4/1
f 4/5/2 3/6/2 7/7/2 8/8/2
f 6/9/3 8/10/3 16/11/3 14/12/3
f 6/9/4 2/13/4 4/14/4 8/10/4
f 3/6/2 4/5/2 12/15/2 11/16/2
f 6/17/5 5/18/5 1/19/5 2/13/5
f 10/20/6 9/21/6 11/22/6 12/23/6
f 2/13/5 1/19/5 9/24/5 10/25/5
f 4/14/7 2/13/7 10/25/7 12/26/7
f 1/1/1 3/4/1 11/27/1 9/28/1
f 16/29/8 15/30/8 13/31/8 14/12/8
f 7/3/1 5/2/1 13/32/1 15/33/1
f 5/18/5 6/17/5 14/34/5 13/35/5
f 8/8/2 7/7/2 15/30/2 16/29/2
