# Blender v2.80 (sub 44) OBJ File: 'platform_templates.blend'
# www.blender.org
mtllib platform_slope_normal_short.mtl
o Cube.003_Cube.053
v 5.000000 -4.000000 -2.000000
v 5.000000 -5.000000 -2.000000
v 5.000000 -4.000000 2.000000
v 5.000000 -5.000000 2.000000
v 8.000000 -5.500000 -2.000000
v 8.000000 -6.500000 2.000000
v 8.000000 -6.500000 -2.000000
v 8.000000 -5.500000 2.000000
vt 0.500000 0.000000
vt 0.625000 0.000000
vt 0.625000 0.250000
vt 0.500000 0.250000
vt 0.375000 0.375000
vt 0.625000 0.375000
vt 0.625000 0.500000
vt 0.375000 0.500000
vt 0.375000 0.750000
vt 0.375000 1.000000
vt 0.625000 0.500000
vt 0.875000 0.500000
vt 0.875000 0.625000
vt 0.625000 0.625000
vt 0.500000 0.750000
vt 0.500000 1.000000
vn 0.4472 0.8944 0.0000
vn 0.0000 0.0000 1.0000
vn -1.0000 0.0000 0.0000
vn 0.0000 0.0000 -1.0000
vn -0.4472 -0.8944 0.0000
vn 1.0000 0.0000 0.0000
usemtl Material.001
s off
f 5/1/1 1/2/1 3/3/1 8/4/1
f 6/5/2 8/6/2 3/7/2 4/8/2
f 2/9/3 4/10/3 3/7/3 1/2/3
f 2/11/4 1/12/4 5/13/4 7/14/4
f 2/9/5 7/15/5 6/16/5 4/10/5
f 7/15/6 5/1/6 8/6/6 6/16/6
